<svg width="21" height="22" viewBox="0 0 21 22" fill="none" xmlns="http://www.w3.org/2000/svg">
<path fill-rule="evenodd" clip-rule="evenodd" d="M0.728359 1.22836L0.5 1.45672V2.60156V3.74641L0.728359 3.97477C0.895625 4.14203 1.03148 4.20312 1.23617 4.20312H1.51562V6.77125V9.33938L1.19781 9.39023C1.01836 9.41891 0.797266 9.52375 0.69 9.63102C0.505547 9.81547 0.5 9.85539 0.5 11C0.5 12.1446 0.505547 12.1845 0.69 12.369C0.797266 12.4762 1.01836 12.5811 1.19781 12.6098L1.51562 12.6606V15.2288V17.7969H1.23617C1.03148 17.7969 0.895625 17.858 0.728359 18.0252L0.5 18.2536V19.3984V20.5433L0.728359 20.7716L0.956719 21H2.10156H3.24641L3.47477 20.7716C3.64203 20.6044 3.70312 20.4685 3.70312 20.2638V19.9844H6.32031H8.9375V20.2638C8.9375 20.4685 8.99859 20.6044 9.16586 20.7716L9.39422 21H10.5391H11.6839L11.9123 20.7716C12.0795 20.6044 12.1406 20.4685 12.1406 20.2638V19.9844H14.7188H17.2969V20.2638C17.2969 20.4685 17.358 20.6044 17.5252 20.7716L17.7536 21H18.8984H20.0433L20.2716 20.7716L20.5 20.5433V19.3984V18.2536L20.2716 18.0252C20.1044 17.858 19.9685 17.7969 19.7638 17.7969H19.4844V15.2288V12.6606L19.8022 12.6098C19.9816 12.5811 20.2027 12.4762 20.31 12.369C20.4945 12.1845 20.5 12.1446 20.5 11C20.5 9.85539 20.4945 9.81547 20.31 9.63102C20.2027 9.52375 19.9816 9.41891 19.8022 9.39023L19.4844 9.33938V6.77125V4.20312H19.7638C19.9685 4.20312 20.1044 4.14203 20.2716 3.97477L20.5 3.74641V2.60156V1.45672L20.2716 1.22836L20.0433 1H18.8984H17.7536L17.5252 1.22836C17.358 1.39563 17.2969 1.53148 17.2969 1.73617V2.01562H14.7188H12.1406V1.73617C12.1406 1.53148 12.0795 1.39563 11.9123 1.22836L11.6839 1H10.5391H9.39422L9.16586 1.22836C8.99859 1.39563 8.9375 1.53148 8.9375 1.73617V2.01562H6.32031H3.70312V1.73617C3.70312 1.53148 3.64203 1.39563 3.47477 1.22836L3.24641 1H2.10156H0.956719L0.728359 1.22836ZM8.9375 3.46695C8.9375 3.67164 8.99859 3.8075 9.16586 3.97477L9.39422 4.20312H10.5391H11.6839L11.9123 3.97477C12.0795 3.8075 12.1406 3.67164 12.1406 3.46695V3.1875H14.7188H17.2969V3.46695C17.2969 3.85461 17.6454 4.20312 18.033 4.20312H18.3125V6.77125V9.33938L17.9947 9.39023C17.8152 9.41891 17.5941 9.52375 17.4869 9.63102C17.3024 9.81547 17.2969 9.85539 17.2969 11C17.2969 12.1446 17.3024 12.1845 17.4869 12.369C17.5941 12.4762 17.8152 12.5811 17.9947 12.6098L18.3125 12.6606V15.2288V17.7969H18.033C17.8284 17.7969 17.6925 17.858 17.5252 18.0252C17.358 18.1925 17.2969 18.3284 17.2969 18.533V18.8125H14.7188H12.1406V18.533C12.1406 18.3284 12.0795 18.1925 11.9123 18.0252L11.6839 17.7969H10.5391H9.39422L9.16586 18.0252C8.99859 18.1925 8.9375 18.3284 8.9375 18.533V18.8125H6.32031H3.70312V18.533C3.70312 18.1454 3.35461 17.7969 2.96695 17.7969H2.6875V15.2288V12.6606L3.00531 12.6098C3.18477 12.5811 3.40586 12.4762 3.51312 12.369C3.69758 12.1845 3.70312 12.1446 3.70312 11C3.70312 9.85539 3.69758 9.81547 3.51312 9.63102C3.40586 9.52375 3.18477 9.41891 3.00531 9.39023L2.6875 9.33938V6.77125V4.20312H2.96695C3.17164 4.20312 3.3075 4.14203 3.47477 3.97477C3.64203 3.8075 3.70312 3.67164 3.70312 3.46695V3.1875H6.32031H8.9375V3.46695ZM9.35383 9.47328C9.21758 9.5325 9.06812 9.65187 9.0218 9.73852C8.91023 9.94687 8.91039 12.0534 9.02188 12.2617C9.17164 12.5416 9.56836 12.6406 10.5391 12.6406C11.5098 12.6406 11.9065 12.5416 12.0562 12.2617C12.1052 12.1701 12.1406 11.6414 12.1406 11C12.1406 10.3586 12.1052 9.82992 12.0562 9.73828C11.9049 9.45555 11.5112 9.35914 10.522 9.36242C9.91766 9.36445 9.51648 9.4025 9.35383 9.47328Z" fill="#15385E" stroke="#15385E"/>
</svg>
