<svg width="24" height="20" viewBox="0 0 24 20" fill="none" xmlns="http://www.w3.org/2000/svg">
<path fill-rule="evenodd" clip-rule="evenodd" d="M11.3816 0.108567C10.2199 0.360974 9.26193 1.11059 8.73252 2.18176C7.44812 4.78061 9.2953 7.76827 12.1866 7.76827C15.0892 7.76827 16.9181 4.79116 15.6295 2.16396C15.0964 1.07705 14.0725 0.307308 12.8633 0.0845066C12.2231 -0.0334684 12.0203 -0.0301591 11.3816 0.108567ZM3.75378 2.94229C3.03547 3.12046 2.40999 3.64182 2.08496 4.33331C1.8355 4.86388 1.83631 5.78353 2.08666 6.33718C2.9742 8.30036 5.82823 8.22711 6.59413 6.22144C6.78866 5.71216 6.75101 4.74519 6.51783 4.26399C6.29762 3.80926 5.78494 3.30293 5.35051 3.11098C4.89015 2.90759 4.19134 2.83371 3.75378 2.94229ZM19.4957 2.94229C18.7774 3.12046 18.1519 3.64182 17.8269 4.33331C17.5774 4.86388 17.5782 5.78353 17.8286 6.33718C18.7161 8.30036 21.5702 8.22711 22.336 6.22144C22.5306 5.71216 22.4929 4.74519 22.2598 4.26399C22.0395 3.80926 21.5269 3.30293 21.0924 3.11098C20.6321 2.90759 19.9333 2.83371 19.4957 2.94229ZM3.13019 9.38593C2.23934 9.59585 1.36289 10.3141 0.975958 11.1513C0.792064 11.5493 0.78151 11.713 0.757986 14.5212C0.730438 17.8215 0.740992 17.8883 1.35493 18.2984C1.64213 18.4902 1.74543 18.5014 3.23322 18.5015L4.8076 18.5016L4.77808 16.8968C4.7466 15.1858 4.8508 13.7842 5.0744 12.9112C5.27028 12.1466 5.8488 11.0204 6.3207 10.4852C6.768 9.97786 6.75843 9.92992 6.14745 9.62098C5.55534 9.32153 3.93794 9.1955 3.13019 9.38593ZM10.6949 9.387C10.0365 9.49693 9.1309 9.85568 8.56705 10.2299C7.89614 10.6753 7.07434 11.5809 6.74734 12.2351C6.23868 13.2531 6.14924 13.8893 6.14924 16.4889C6.14924 19.0922 6.16265 19.158 6.79045 19.6371L7.1188 19.8878L10.972 19.9658C15.1343 20.0501 16.9194 19.9824 17.4742 19.7192C17.6676 19.6274 17.8769 19.4205 18.0081 19.1914C18.2219 18.8182 18.224 18.7905 18.222 16.3995C18.2203 14.3881 18.194 13.8893 18.0644 13.4142C17.5007 11.3473 15.6412 9.62545 13.7071 9.37958C12.8981 9.27672 11.3324 9.28056 10.6949 9.387ZM18.8948 9.40695C18.3795 9.52617 18.0595 9.66848 17.802 9.89289C17.6592 10.0174 17.6769 10.059 18.0538 10.4852C18.6024 11.1055 19.2049 12.3708 19.4007 13.3137C19.5261 13.9175 19.5593 14.5296 19.5622 16.2875L19.5656 18.501L21.14 18.5012C22.6258 18.5014 22.731 18.49 23.0093 18.3001C23.1714 18.1894 23.3798 17.958 23.4725 17.7859C23.6292 17.4944 23.6391 17.2688 23.6157 14.5212C23.5871 11.1558 23.5829 11.1343 22.7905 10.2872C22.159 9.61204 21.4993 9.3531 20.3259 9.31974C19.7817 9.30427 19.1799 9.34094 18.8948 9.40695Z" fill="#27ACE4"/>
</svg>
