<svg width="23" height="24" viewBox="0 0 23 24" fill="none" xmlns="http://www.w3.org/2000/svg">
<path fill-rule="evenodd" clip-rule="evenodd" d="M10.3882 0.813045C9.129 1.07976 8.11684 1.60447 7.20228 2.46486C5.6943 3.88352 5.0188 5.6701 5.19664 7.76999C5.32083 9.23639 6.03571 10.6565 7.20228 11.7539C7.96939 12.4755 8.74796 12.9281 9.76505 13.2438C10.7126 13.5379 12.3408 13.5379 13.2884 13.2438C14.3054 12.9281 15.084 12.4755 15.8511 11.7539C16.66 10.9929 17.2254 10.1343 17.5754 9.13528C17.8036 8.48399 17.8224 8.33046 17.8224 7.10937C17.8224 5.88828 17.8036 5.73475 17.5754 5.08347C16.8944 3.13975 15.2973 1.5991 13.3324 0.990091C12.632 0.773056 11.0318 0.676781 10.3882 0.813045ZM20.6873 12.4893C20.2368 12.6824 17.0311 15.8974 16.7558 16.432C16.4555 17.0156 15.9379 17.5555 15.4303 17.8149C15.0116 18.0288 14.9713 18.032 12.3855 18.0574L9.76505 18.0831V17.4702V16.8572L12.1653 16.8274C14.2454 16.8017 14.6032 16.7772 14.8472 16.6441C15.7344 16.16 15.9318 14.9201 15.2289 14.2467L14.9714 14L14.4162 14.2316C11.8804 15.2889 8.91249 14.8622 6.74813 13.1289C6.39694 12.8476 6.05879 12.6168 5.99669 12.616C5.79939 12.6134 4.80009 12.9749 4.48008 13.1646C4.31052 13.2652 3.28938 14.2223 2.2109 15.2916L0.25 17.2358L3.25609 20.2429L6.26226 23.25L6.83154 22.819C7.51964 22.2983 7.85735 22.1211 8.66401 21.8583C9.23294 21.673 9.49507 21.653 12.0552 21.5998C15.992 21.518 15.5355 21.7502 19.4788 17.8238C21.3995 15.9114 22.5158 14.7342 22.6278 14.5028C23.2343 13.2499 21.971 11.9391 20.6873 12.4893Z" fill="#BE1BCC"/>
</svg>
