<svg width="163" height="25" viewBox="0 0 163 25" fill="none" xmlns="http://www.w3.org/2000/svg">
<path d="M16.9977 25.0001V17.7937C16.9977 17.4655 16.979 17.1596 16.9418 16.8761C16.9045 16.5926 16.8298 16.3502 16.7179 16.1487C16.606 15.9473 16.4419 15.7907 16.2256 15.6788C16.0092 15.5669 15.722 15.5109 15.3639 15.5109H13.1931C12.5665 15.5109 12.1263 15.6303 11.8726 15.869C11.619 16.1077 11.4922 16.4807 11.4922 16.988V25.0001H8.60512V16.988C8.60512 16.4807 8.47833 16.1077 8.22465 15.869C7.97107 15.6303 7.54585 15.5109 6.94901 15.5109H4.82294C4.39028 15.5109 4.05828 15.6079 3.82703 15.8018C3.59577 15.9958 3.42786 16.2868 3.32348 16.6747V25.0001H0.414062V12.9148H3.21158V14.6605C3.46517 14.1383 3.8233 13.7168 4.28582 13.396C4.74834 13.0752 5.38239 12.9148 6.18808 12.9148H7.12808C8.27693 12.9148 9.17582 13.0827 9.82485 13.4184C10.4739 13.7541 10.9252 14.3471 11.1788 15.1976C11.4026 14.392 11.7905 13.8101 12.3426 13.4519C12.8946 13.0939 13.6407 12.9148 14.5806 12.9148H15.6324C16.4978 12.9148 17.2065 13.0118 17.7586 13.2058C18.3106 13.3998 18.7471 13.6982 19.0678 14.101C19.3886 14.5039 19.6124 15.0074 19.7392 15.6116C19.8661 16.2159 19.9294 16.9283 19.9294 17.7489V25.0001H16.9977ZM22.6374 11.863V8.6626H25.6588V11.863H22.6374ZM22.6374 25.0001V12.9148H25.6364V25.0001H22.6374ZM33.0218 25.0001C31.5597 25.0001 30.422 24.6681 29.6089 24.0041C28.7957 23.3402 28.3891 22.2547 28.3891 20.7478V17.1671C28.3891 15.6602 28.7957 14.5747 29.6089 13.9107C30.422 13.2468 31.5597 12.9148 33.0218 12.9148H37.9902C38.4825 12.9148 38.9115 12.982 39.277 13.1162C39.6426 13.2505 39.9522 13.4146 40.2058 13.6086C40.4595 13.8026 40.6609 14.0152 40.8101 14.2465C40.9593 14.4777 41.0712 14.6828 41.1458 14.8619L39.512 16.5628C39.3778 16.2793 39.1913 16.0331 38.9526 15.8242C38.7138 15.6154 38.3408 15.5109 37.8335 15.5109H33.0218C32.4996 15.5109 32.0931 15.6452 31.8021 15.9137C31.5112 16.1823 31.3657 16.6001 31.3657 17.1671V20.7478C31.3657 21.3148 31.5112 21.7326 31.8021 22.0011C32.0931 22.2697 32.4996 22.4039 33.0218 22.4039H37.9454C38.4527 22.4039 38.8294 22.2996 39.0756 22.0906C39.3218 21.8818 39.5046 21.6431 39.6239 21.3745L41.28 23.053C41.2054 23.232 41.0898 23.4372 40.9331 23.6684C40.7765 23.8997 40.5714 24.1123 40.3177 24.3063C40.0641 24.5002 39.7544 24.6643 39.3889 24.7987C39.0234 24.9329 38.5944 25.0001 38.1021 25.0001H33.0218ZM43.4509 25.0001V12.9148H46.3379V14.5709C46.6065 13.9592 47.0019 13.5154 47.5241 13.2394C48.0462 12.9633 48.6431 12.8253 49.3144 12.8253C49.6427 12.8253 49.9523 12.8589 50.2432 12.926C50.5342 12.9932 50.7916 13.0789 51.0153 13.1834L50.5901 15.869C50.3812 15.6899 50.1425 15.5669 49.874 15.4998C49.6054 15.4326 49.2324 15.399 48.755 15.399C48.0687 15.399 47.5315 15.5408 47.1436 15.8242C46.7556 16.1077 46.5244 16.4956 46.4499 16.988V25.0001H43.4509ZM57.2369 25.0001C55.6107 25.0001 54.432 24.6681 53.7009 24.0041C52.9698 23.3402 52.6042 22.2547 52.6042 20.7478V17.1671C52.6042 15.6602 52.9698 14.5747 53.7009 13.9107C54.432 13.2468 55.6107 12.9148 57.2369 12.9148H61.2429C62.8842 12.9148 64.0703 13.2468 64.8014 13.9107C65.5325 14.5747 65.898 15.6602 65.898 17.1671V20.7478C65.898 22.2547 65.5325 23.3402 64.8014 24.0041C64.0703 24.6681 62.8842 25.0001 61.2429 25.0001H57.2369ZM62.8991 17.1671C62.8991 16.5404 62.7648 16.1077 62.4962 15.869C62.2277 15.6303 61.8099 15.5109 61.2429 15.5109H57.2369C56.67 15.5109 56.2522 15.6303 55.9836 15.869C55.7151 16.1077 55.5808 16.5404 55.5808 17.1671V20.7478C55.5808 21.3745 55.7151 21.8072 55.9836 22.0459C56.2522 22.2846 56.67 22.4039 57.2369 22.4039H61.2429C61.8099 22.4039 62.2277 22.2846 62.4962 22.0459C62.7648 21.8072 62.8991 21.3745 62.8991 20.7478V17.1671Z" fill="#1669FE"/>
<path d="M73.9325 25.0002L65.5176 9.60278H69.1208L75.5215 21.7103L81.9222 9.60278H85.5477L77.0881 25.0002H73.9325ZM87.2263 25.0002V9.60278H90.2476V25.0002H87.2263ZM97.7673 25.0002V12.6464H92.1499V9.60278H106.406V12.6464H100.789V25.0002H97.7673ZM120.394 25.0002V18.6443H111.218V25.0002H108.241V9.60278H111.218V15.8692H120.394V9.60278H123.37V25.0002H120.394ZM138.23 25.0002V18.6443H129.055V25.0002H126.078V9.60278H129.055V15.8692H138.23V9.60278H141.207V25.0002H138.23ZM159.402 25.0002L157.477 21.4195H148.19L146.265 25.0002H142.818L151.256 9.60278H154.411L162.848 25.0002H159.402ZM152.845 12.6241L149.353 19.0024H156.336L152.845 12.6241Z" fill="#FF5C49"/>
<path d="M45.3644 5.4492C45.8099 5.72233 46.1889 5.9118 46.5013 6.02278C46.812 6.13207 47.1159 6.18671 47.4129 6.18671C47.7116 6.18671 47.9524 6.12005 48.135 5.98861C48.316 5.85716 48.4064 5.68816 48.4064 5.4816C48.4064 5.18631 48.0838 4.85169 47.4368 4.48298C47.3327 4.42317 47.2524 4.37538 47.1961 4.34299L46.7062 4.06639C46.2298 3.79673 45.8764 3.49112 45.6477 3.15142C45.4173 2.81172 45.3029 2.42584 45.3029 1.99564C45.3029 1.41183 45.5231 0.93383 45.9636 0.559959C46.4023 0.186089 46.9707 0 47.6672 0C47.925 0 48.2033 0.0307889 48.5021 0.0905067C48.8025 0.150309 49.1354 0.2442 49.5024 0.370487V2.06906C49.1525 1.85057 48.8212 1.68157 48.5072 1.56205C48.193 1.44253 47.9267 1.38281 47.7065 1.38281C47.4624 1.38281 47.2712 1.43576 47.1312 1.53989C46.9912 1.64401 46.9213 1.78739 46.9213 1.96663C46.9213 2.093 46.9622 2.21074 47.0458 2.32003C47.1295 2.431 47.2541 2.52997 47.4214 2.62048L48.2716 3.08993C48.9835 3.48427 49.4615 3.8479 49.7073 4.18083C49.9531 4.51537 50.076 4.90971 50.076 5.36724C50.076 6.07396 49.8353 6.64584 49.3539 7.08121C48.8708 7.51649 48.2323 7.73328 47.4351 7.73328C47.1654 7.73328 46.8718 7.70427 46.5542 7.64793C46.2384 7.5916 45.8885 7.50287 45.5094 7.38335L45.3644 5.4492ZM39.7394 2.41722V4.21932C39.7394 4.85693 39.8576 5.334 40.0914 5.65094C40.3252 5.96814 40.6796 6.12699 41.1556 6.12699C41.613 6.12699 41.9624 5.97829 42.203 5.68325C42.4434 5.38839 42.5126 4.95886 42.5073 4.3945L42.4887 2.41146L44.1819 2.40943L44.2401 4.23548C44.2733 5.27707 44.1352 6.35004 43.4559 6.95661C42.7365 7.59896 42.0262 7.70816 41.0758 7.70816C40.1151 7.70816 39.3682 7.41955 38.8348 6.84107C38.3023 6.26343 38.0116 5.40742 38.0116 4.36176V2.42102L39.7394 2.41722ZM0.414062 7.49771L1.91978 0.0103193H2.04437L4.7809 4.73217L7.36205 0.0103193H7.4918L9.00775 7.49771H7.36205L6.74744 4.18591L4.80137 7.76407H4.68532L2.59579 4.13643L1.95903 7.49771H0.414062ZM9.53861 7.49771L13.238 0.0205544H13.3473L16.9647 7.49771H15.1534L14.6942 6.44275H11.7511L11.2817 7.49771H9.53861ZM12.253 5.19308H14.1581L13.2175 2.92262L12.253 5.19308ZM17.4615 7.49771L20.0665 3.74716L17.4973 0.245891H19.6107L21.1061 2.31664L22.5111 0.245891H24.3957L22.0604 3.59694L24.9181 7.49771H22.7877L21.0259 5.03778L19.3563 7.49771H17.4615ZM25.6061 7.49771V0.245891H27.3371V7.49771H25.6061ZM28.4331 7.49771L29.9387 0.0103193H30.0634L32.8 4.73217L35.3811 0.0103193H35.5108L37.0267 7.49771H35.3811L34.7665 4.18591L32.8204 7.76407H32.7043L30.6148 4.13643L29.978 7.49771H28.4331Z" fill="#1669FE"/>
<path fill-rule="evenodd" clip-rule="evenodd" d="M38.0088 0.255127H39.7222V1.93424H38.0088V0.255127Z" fill="#FF5C49"/>
<path fill-rule="evenodd" clip-rule="evenodd" d="M42.4736 0.255127H44.1869V1.93424H42.4736V0.255127Z" fill="#FF5C49"/>
</svg>
