<svg width="163" height="25" viewBox="0 0 163 25" fill="none" xmlns="http://www.w3.org/2000/svg">
<path d="M16.5836 25V17.7936C16.5836 17.4655 16.5649 17.1596 16.5277 16.8761C16.4904 16.5926 16.4157 16.3502 16.3038 16.1487C16.1919 15.9473 16.0278 15.7906 15.8115 15.6787C15.5951 15.5668 15.3079 15.5109 14.9498 15.5109H12.779C12.1524 15.5109 11.7122 15.6303 11.4585 15.869C11.2049 16.1077 11.0781 16.4807 11.0781 16.988V25H8.19104V16.988C8.19104 16.4807 8.06425 16.1077 7.81058 15.869C7.55699 15.6303 7.13177 15.5109 6.53494 15.5109H4.40887C3.97621 15.5109 3.64421 15.6079 3.41296 15.8018C3.1817 15.9958 3.01379 16.2867 2.90942 16.6747V25H0V12.9148H2.79751V14.6605C3.0511 14.1383 3.40923 13.7168 3.87175 13.396C4.33427 13.0752 4.96832 12.9148 5.774 12.9148H6.714C7.86285 12.9148 8.76174 13.0827 9.41077 13.4184C10.0598 13.7541 10.5111 14.3471 10.7647 15.1976C10.9886 14.3919 11.3765 13.8101 11.9286 13.4519C12.4806 13.0939 13.2266 12.9148 14.1665 12.9148H15.2184C16.0838 12.9148 16.7924 13.0118 17.3445 13.2058C17.8965 13.3997 18.333 13.6982 18.6537 14.101C18.9745 14.5038 19.1983 15.0074 19.3251 15.6116C19.452 16.2159 19.5153 16.9283 19.5153 17.7489V25H16.5836ZM22.2233 11.863V8.6626H25.2447V11.863H22.2233ZM22.2233 25V12.9148H25.2222V25H22.2233ZM32.6077 25C31.1455 25 30.0079 24.668 29.1947 24.0041C28.3816 23.3402 27.975 22.2547 27.975 20.7478V17.167C27.975 15.6601 28.3816 14.5746 29.1947 13.9107C30.0079 13.2468 31.1455 12.9148 32.6077 12.9148H37.5761C38.0684 12.9148 38.4974 12.982 38.8629 13.1162C39.2285 13.2505 39.5381 13.4146 39.7916 13.6086C40.0453 13.8025 40.2467 14.0152 40.3959 14.2465C40.5451 14.4777 40.657 14.6828 40.7317 14.8619L39.0979 16.5627C38.9636 16.2793 38.7771 16.0331 38.5384 15.8242C38.2996 15.6154 37.9267 15.5109 37.4194 15.5109H32.6077C32.0855 15.5109 31.6789 15.6452 31.388 15.9137C31.0971 16.1823 30.9516 16.6001 30.9516 17.167V20.7478C30.9516 21.3148 31.0971 21.7326 31.388 22.0011C31.6789 22.2697 32.0855 22.4039 32.6077 22.4039H37.5313C38.0386 22.4039 38.4153 22.2995 38.6615 22.0906C38.9076 21.8818 39.0904 21.6431 39.2098 21.3745L40.8659 23.0529C40.7913 23.232 40.6757 23.4371 40.519 23.6684C40.3623 23.8996 40.1572 24.1123 39.9036 24.3062C39.65 24.5002 39.3403 24.6643 38.9748 24.7986C38.6092 24.9329 38.1803 25 37.6879 25H32.6077ZM43.0367 25V12.9148H45.9238V14.5709C46.1923 13.9592 46.5877 13.5154 47.1099 13.2394C47.6321 12.9633 48.2289 12.8253 48.9003 12.8253C49.2286 12.8253 49.5381 12.8589 49.829 12.926C50.12 12.9931 50.3774 13.0789 50.6011 13.1834L50.1759 15.869C49.9671 15.6899 49.7284 15.5668 49.4598 15.4998C49.1913 15.4326 48.8182 15.399 48.3408 15.399C47.6545 15.399 47.1174 15.5408 46.7295 15.8242C46.3415 16.1077 46.1102 16.4956 46.0357 16.988V25H43.0367ZM56.8228 25C55.1965 25 54.0178 24.668 53.2867 24.0041C52.5557 23.3402 52.1901 22.2547 52.1901 20.7478V17.167C52.1901 15.6601 52.5557 14.5746 53.2867 13.9107C54.0178 13.2468 55.1965 12.9148 56.8228 12.9148H60.8287C62.47 12.9148 63.6561 13.2468 64.3872 13.9107C65.1183 14.5746 65.4838 15.6601 65.4838 17.167V20.7478C65.4838 22.2547 65.1183 23.3402 64.3872 24.0041C63.6561 24.668 62.47 25 60.8287 25H56.8228ZM62.4849 17.167C62.4849 16.5404 62.3506 16.1077 62.0821 15.869C61.8135 15.6303 61.3957 15.5109 60.8287 15.5109H56.8228C56.2558 15.5109 55.838 15.6303 55.5695 15.869C55.3009 16.1077 55.1666 16.5404 55.1666 17.167V20.7478C55.1666 21.3745 55.3009 21.8072 55.5695 22.0459C55.838 22.2846 56.2558 22.4039 56.8228 22.4039H60.8287C61.3957 22.4039 61.8135 22.2846 62.0821 22.0459C62.3506 21.8072 62.4849 21.3745 62.4849 20.7478V17.167Z" fill="#003087"/>
<path d="M73.5185 25L65.1035 9.60254H68.7067L75.1074 21.7101L81.5081 9.60254H85.1336L76.674 25H73.5185ZM86.8121 25V9.60254H89.8335V25H86.8121ZM97.3531 25V12.6462H91.7358V9.60254H105.992V12.6462H100.374V25H97.3531ZM119.979 25V18.644H110.804V25H107.827V9.60254H110.804V15.8689H119.979V9.60254H122.956V25H119.979ZM137.816 25V18.644H128.64V25H125.664V9.60254H128.64V15.8689H137.816V9.60254H140.793V25H137.816ZM158.988 25L157.063 21.4192H147.775L145.851 25H142.404L150.841 9.60254H153.997L162.434 25H158.988ZM152.43 12.6239L148.939 19.0021H155.922L152.43 12.6239Z" fill="#C54031"/>
<path d="M44.9502 5.44919C45.3957 5.72232 45.7747 5.91179 46.0871 6.02277C46.3978 6.13205 46.7017 6.1867 46.9987 6.1867C47.2975 6.1867 47.5382 6.12004 47.7208 5.9886C47.9018 5.85715 47.9923 5.68815 47.9923 5.48159C47.9923 5.1863 47.6696 4.85168 47.0226 4.48297C46.9185 4.42316 46.8382 4.37537 46.7819 4.34298L46.292 4.06638C45.8157 3.79672 45.4623 3.49111 45.2336 3.15142C45.0032 2.81172 44.8887 2.42584 44.8887 1.99563C44.8887 1.41182 45.109 0.933828 45.5494 0.559958C45.9882 0.186089 46.5566 0 47.2531 0C47.5109 0 47.7892 0.0307888 48.0879 0.0905065C48.3884 0.150309 48.7212 0.244199 49.0882 0.370486V2.06906C48.7383 1.85057 48.4071 1.68157 48.093 1.56205C47.7788 1.44253 47.5126 1.38281 47.2923 1.38281C47.0482 1.38281 46.857 1.43576 46.717 1.53989C46.577 1.64401 46.5071 1.78738 46.5071 1.96662C46.5071 2.09299 46.548 2.21074 46.6317 2.32002C46.7153 2.431 46.8399 2.52996 47.0072 2.62047L47.8574 3.08992C48.5693 3.48426 49.0473 3.8479 49.2931 4.18083C49.5389 4.51536 49.6618 4.9097 49.6618 5.36723C49.6618 6.07394 49.4212 6.64583 48.9397 7.08119C48.4566 7.51647 47.8182 7.73326 47.021 7.73326C46.7512 7.73326 46.4576 7.70425 46.1401 7.64792C45.8242 7.59158 45.4743 7.50285 45.0953 7.38333L44.9502 5.44919ZM39.3252 2.41721V4.21931C39.3252 4.85692 39.4435 5.33399 39.6772 5.65093C39.9111 5.96813 40.2654 6.12698 40.7415 6.12698C41.1988 6.12698 41.5482 5.97828 41.7888 5.68324C42.0293 5.38837 42.0985 4.95885 42.0931 4.39449L42.0745 2.41146L43.7678 2.40943L43.826 4.23547C43.8591 5.27706 43.7211 6.35003 43.0418 6.9566C42.3224 7.59894 41.612 7.70814 40.6616 7.70814C39.701 7.70814 38.9541 7.41954 38.4207 6.84105C37.8881 6.26341 37.5975 5.40741 37.5975 4.36176V2.42102L39.3252 2.41721ZM0 7.49769L1.50571 0.0103192H1.63031L4.36683 4.73216L6.94797 0.0103192H7.07772L8.59367 7.49769H6.94797L6.33337 4.1859L4.3873 7.76405H4.27125L2.18172 4.13642L1.54496 7.49769H0ZM9.12453 7.49769L12.8239 0.0205543H12.9332L16.5506 7.49769H14.7393L14.2801 6.44274H11.337L10.8676 7.49769H9.12453ZM11.8389 5.19307H13.744L12.8034 2.92261L11.8389 5.19307ZM17.0474 7.49769L19.6523 3.74715L17.0832 0.245891H19.1966L20.692 2.31664L22.097 0.245891H23.9816L21.6463 3.59693L24.504 7.49769H22.3736L20.6118 5.03777L18.9422 7.49769H17.0474ZM25.192 7.49769V0.245891H26.923V7.49769H25.192ZM28.019 7.49769L29.5246 0.0103192H29.6493L32.3858 4.73216L34.967 0.0103192H35.0967L36.6126 7.49769H34.967L34.3524 4.1859L32.4063 7.76405H32.2902L30.2007 4.13642L29.5639 7.49769H28.019Z" fill="#003087"/>
<path fill-rule="evenodd" clip-rule="evenodd" d="M37.5947 0.254883H39.3081V1.934H37.5947V0.254883Z" fill="#C54031"/>
<path fill-rule="evenodd" clip-rule="evenodd" d="M42.0586 0.254883H43.7719V1.934H42.0586V0.254883Z" fill="#C54031"/>
</svg>
