<svg width="24" height="24" viewBox="0 0 24 24" fill="none" xmlns="http://www.w3.org/2000/svg">
<path fill-rule="evenodd" clip-rule="evenodd" d="M7.09942 3.03356C4.4188 4.28734 2.17674 5.362 2.117 5.42174C2.05735 5.48139 2.03786 5.5778 2.07372 5.63583C2.10958 5.69387 4.40199 6.69404 7.16792 7.85858L12.1968 9.9757L17.2258 7.85858C19.9917 6.69404 22.2841 5.69387 22.32 5.63583C22.3558 5.5778 22.3363 5.48139 22.2766 5.42165C22.0859 5.23099 12.3896 0.745711 12.1773 0.750003C12.065 0.752239 9.78003 1.77986 7.09942 3.03356ZM0.809649 6.88667C0.776829 6.9194 0.75 9.63776 0.75 12.9273V18.9083L0.967311 19.1054C1.24356 19.3557 11.1694 23.3178 11.3482 23.2491C11.4643 23.2046 11.4814 22.4315 11.4814 17.2179V11.2377L11.2586 11.1362C10.4887 10.7854 1.02303 6.82702 0.954076 6.82702C0.907394 6.82702 0.84238 6.85385 0.809649 6.88667ZM19.3064 8.53C17.093 9.46435 14.7489 10.4541 14.0972 10.7295L12.9123 11.2301V17.2141C12.9123 22.431 12.9293 23.2046 13.0454 23.2491C13.2245 23.3179 23.1503 19.3554 23.427 19.1047L23.6449 18.9072L23.6219 12.8907C23.6018 7.62374 23.5822 6.87147 23.4648 6.85269C23.391 6.84088 21.5197 7.59566 19.3064 8.53Z" fill="#DCA40E"/>
</svg>
