<svg width="23" height="24" viewBox="0 0 23 24" fill="none" xmlns="http://www.w3.org/2000/svg">
<path fill-rule="evenodd" clip-rule="evenodd" d="M10.4991 0.917704C9.16103 1.3517 8.16859 2.69776 8.16859 4.07846C8.16859 4.66257 8.46329 5.5391 8.82412 6.02789C9.8906 7.4727 12.0658 7.79 13.477 6.70663C14.3372 6.04627 14.7782 5.15549 14.7782 4.07846C14.7782 2.59029 13.8836 1.35232 12.4905 0.912956C11.7969 0.694154 11.1836 0.695648 10.4991 0.917704ZM3.81542 7.28195C3.76705 7.30121 3.61975 7.3407 3.4881 7.36972C3.17142 7.43946 2.89202 7.75007 2.89202 8.03246C2.89202 8.15742 3.00512 8.39724 3.14336 8.56548C3.42795 8.91171 3.69714 9.41887 3.85429 9.90458C3.95684 10.2218 3.9505 10.2432 3.68782 10.4642C3.34009 10.7568 2.73232 11.5518 2.40121 12.1471L2.14451 12.6087L1.55661 12.6088C0.911902 12.6089 0.549138 12.7111 0.373604 12.9421C0.208799 13.1591 0.208799 17.4233 0.373604 17.6402C0.549138 17.8712 0.911902 17.9734 1.55661 17.9735L2.14451 17.9736L2.38477 18.4014C3.06263 19.6083 4.0548 20.5963 5.15435 21.1594C5.6631 21.4199 5.71209 21.4689 5.67198 21.6767C5.49372 22.5985 5.50278 22.7908 5.73565 23.0236C5.96167 23.2496 5.96439 23.25 7.50902 23.25C9.01337 23.25 9.06165 23.2444 9.26164 23.0444C9.39698 22.909 9.4887 22.6834 9.52977 22.3848L9.59221 21.9309H10.8092C12.1559 21.9309 12.0504 21.8813 12.1664 22.5688C12.2744 23.2092 12.3944 23.2503 14.1433 23.2472C15.7834 23.2442 15.917 23.2139 16.0666 22.8094C16.1082 22.6968 16.111 22.4431 16.0727 22.2458C15.9295 21.5066 15.9525 21.4449 16.4663 21.1935C17.6696 20.6048 18.8148 19.4456 19.4304 18.1933C19.9412 17.1541 20.0806 16.5301 20.0791 15.2912C20.0777 14.0909 19.9407 13.4619 19.4628 12.4619C19.2971 12.115 19.1614 11.7935 19.1614 11.7475C19.1614 11.7016 19.3419 11.4976 19.5625 11.2943C20.2054 10.7016 20.8381 10.5208 21.2525 10.8111C21.5149 10.9948 21.5008 11.078 21.1402 11.4773C20.7856 11.8697 20.76 12.0535 21.0147 12.3772C21.5885 13.1068 22.8908 11.9515 22.7423 10.8445C22.621 9.94029 21.8689 9.39707 20.7444 9.40173C19.9621 9.40498 19.3501 9.66564 18.6795 10.2812L18.2662 10.6607L17.7311 10.2295C17.0322 9.66635 15.9956 9.13253 15.1413 8.89606C14.4987 8.71815 14.2388 8.70531 10.9268 8.68789L7.39707 8.66925L7.02411 8.26463C6.81164 8.03413 6.40982 7.74119 6.09033 7.58386C5.60893 7.34694 5.41431 7.3035 4.7164 7.27738C4.26921 7.26058 3.86379 7.26269 3.81542 7.28195ZM14.6035 11.5233C14.8068 11.7072 14.8155 12.2308 14.6188 12.4481C14.4832 12.5978 14.2688 12.6089 11.5002 12.6089C8.5551 12.6089 8.52555 12.6071 8.34791 12.4164C8.24933 12.3106 8.16859 12.1202 8.16859 11.9933C8.16859 11.8664 8.24933 11.676 8.34791 11.5702C8.52547 11.3796 8.55554 11.3777 11.4849 11.3777C14.1137 11.3777 14.4606 11.3939 14.6035 11.5233ZM6.67014 12.8894C7.05286 13.3001 6.76248 13.9281 6.18988 13.9281C5.9935 13.9281 5.82659 13.8611 5.70962 13.7356C5.3269 13.3248 5.61728 12.6969 6.18988 12.6969C6.38626 12.6969 6.55317 12.7638 6.67014 12.8894Z" fill="#56C744"/>
</svg>
