<svg width="26" height="20" viewBox="0 0 26 20" fill="none" xmlns="http://www.w3.org/2000/svg">
<path fill-rule="evenodd" clip-rule="evenodd" d="M7.73732 0.113881C6.66595 0.467855 5.56408 1.32625 5.04559 2.21113C3.91949 4.13257 4.29811 6.6642 5.92627 8.10023C7.81136 9.76278 10.6123 9.69337 12.3651 7.94054C14.648 5.65763 14.0031 1.84935 11.0897 0.409527C10.3654 0.0514456 10.2544 0.0272104 9.23372 0.00348888C8.54354 -0.0126335 7.99846 0.0276212 7.73732 0.113881ZM18.0064 2.8855C17.0079 3.21616 16.2406 3.88519 15.8082 4.80181C15.5867 5.27151 15.5418 5.51355 15.5418 6.23947C15.5418 7.294 15.8201 7.98737 16.527 8.69439C17.234 9.40131 17.9274 9.6796 18.9819 9.6796C20.0365 9.6796 20.7298 9.40131 21.4368 8.69439C22.1438 7.98737 22.4221 7.294 22.4221 6.23947C22.4221 5.51355 22.3772 5.27151 22.1557 4.80181C21.8148 4.07928 21.1364 3.40213 20.4252 3.07476C19.7554 2.76627 18.6315 2.67837 18.0064 2.8855ZM7.04056 10.8665C3.41743 11.757 0.801497 14.8567 0.53255 18.578C0.470422 19.4377 0.476995 19.4753 0.735056 19.7333L1.00174 20H9.06767C16.9619 20 17.1378 19.9957 17.3363 19.7972C17.641 19.4925 17.6909 19.1278 17.5611 18.1529C17.084 14.5696 14.5176 11.686 11.0748 10.8648C9.92 10.5893 8.16512 10.5902 7.04056 10.8665ZM17.8924 10.8009C17.2795 10.9166 15.9012 11.427 15.9012 11.5381C15.9012 11.5565 16.1163 11.7928 16.3792 12.0633C17.6649 13.3856 18.673 15.2542 19.0269 16.9706L19.1539 17.5868L21.9345 17.6141L24.7151 17.6414L24.9292 17.3692C25.1857 17.0431 25.2023 16.5468 24.9903 15.5462C24.3166 12.3665 21.0755 10.1995 17.8924 10.8009Z" fill="#10AA51"/>
</svg>
